<svg xmlns="http://www.w3.org/2000/svg" width="374" height="101"><g transform="translate(-346 -14)"><rect width="374" height="101" rx="12" transform="translate(346 14)" fill="#fff"/><path d="M358 18a8.009 8.009 0 00-8 8v77a8.009 8.009 0 008 8h350a8.009 8.009 0 008-8V26a8.009 8.009 0 00-8-8H358m0-4h350a12 12 0 0112 12v77a12 12 0 01-12 12H358a12 12 0 01-12-12V26a12 12 0 0112-12z" fill="#adcc08"/><text transform="translate(363 54)" fill="#483c34" font-size="24" font-family="NotoSansCJKjp-Bold, Noto Sans CJK JP" font-weight="700"><tspan x="0" y="0">資料請求</tspan></text><text transform="translate(485.004 54)" fill="#483c34" font-size="24" font-family="NotoSansCJKjp-Bold, Noto Sans CJK JP" font-weight="700"><tspan x="0" y="0">無料相談</tspan></text><text transform="translate(607 54)" fill="#483c34" font-size="24" font-family="NotoSansCJKjp-Bold, Noto Sans CJK JP" font-weight="700"><tspan x="0" y="0">セミナー</tspan></text><path d="M349 70h369v32a10 10 0 01-10 10H359a10 10 0 01-10-10V70z" fill="#adcc08"/><text transform="translate(369 98)" fill="#fff" font-size="24" font-family="NotoSansCJKjp-Bold, Noto Sans CJK JP" font-weight="700" letter-spacing=".041em"><tspan x="0" y="0">お問い合わせはこちらから</tspan></text><path d="M472.005 60a.5.5 0 01-.5-.5v-28a.5.5 0 01.5-.5.5.5 0 01.5.5v28a.5.5 0 01-.5.5zm121.997 0a.5.5 0 01-.5-.5v-28a.5.5 0 01.5-.5.5.5 0 01.5.5v28a.5.5 0 01-.5.5z" fill="#adcc08"/><g transform="translate(23 12)"><ellipse cx="13.5" cy="13" rx="13.5" ry="13" transform="translate(650 64)" fill="#fff"/><path d="M667.54 77.875l-4.666 4.667a1 1 0 01-1.414 0 1 1 0 010-1.414l3.96-3.96-3.96-3.96a1 1 0 010-1.414 1 1 0 011.414 0l4.667 4.667a1 1 0 010 1.414z" fill="#adcc08"/></g></g></svg>