<svg version="1.1" id="レイヤー_1" xmlns="http://www.w3.org/2000/svg" xmlns:xlink="http://www.w3.org/1999/xlink" x="0" y="0" viewBox="0 0 164 62" xml:space="preserve" xlink:href="data:image"><style>.st0{enable-background:new}.st2{fill:#483c34}</style><path d="M967.1 76.1c-.5 1.1-1.3 1.9-2.3 2.5 1.1.5 2.3.8 3.7 1-.2.2-.4.5-.4.7-1.5-.2-2.8-.6-4-1.2-1.2.6-2.6 1-4 1.2-.1-.2-.3-.5-.4-.7 1.4-.2 2.7-.5 3.8-1-.8-.6-1.5-1.2-2-2.1h.1-.6v-.7h5.5l.6.3zm-6.6-.1h-.7v-2h1.6c-.1-.4-.4-.9-.7-1.3l.6-.2c.3.4.6.9.7 1.3l-.6.2h4.3c.3-.5.7-1.2.9-1.7l.7.2-.9 1.5h1.7v2h-.7v-1.4h-7.1V76zm7.3-4.3c-2 .4-5.1.7-7.7.8 0-.2-.1-.5-.2-.6 2.6-.1 5.6-.4 7.3-.7l.6.5zm-5.6 4.8c.5.7 1.1 1.3 2 1.7.8-.5 1.4-1 1.9-1.7h-3.9zm1.7-2.6c-.1-.4-.3-1-.5-1.5l.7-.1c.2.5.5 1.1.5 1.4l-.7.2zm8.9-2.5c-.3.7-.6 1.5-1.1 2.2v6.6h-.7v-5.5c-.3.4-.7.9-1 1.2-.1-.2-.3-.6-.5-.7 1-1 2-2.5 2.5-4l.8.2zm5.8 2.7h-1.3v5.2c0 .6-.2.8-.5.9-.4.1-1.1.1-2.1.1 0-.2-.2-.5-.3-.7h1.9c.2 0 .3-.1.3-.3v-5.2h-4v-.7h4v-2.1h.7v2.1h1.3v.7zm-4 3.8c-.3-.6-.9-1.7-1.4-2.5l.6-.3c.5.8 1.2 1.8 1.5 2.4l-.7.4zm8.1.4h-2.1v.8h-.7v-7.3h2.8v6.5zm-2.1-5.8v2.2h1.4v-2.2h-1.4zm1.4 5.1v-2.3h-1.4v2.3h1.4zm5.4-2.7V76h1.2v.7h-1.2v2.7c0 .4-.1.6-.4.8-.3.1-.8.1-1.6.1 0-.2-.1-.5-.2-.7h1.3c.2 0 .2-.1.2-.2v-2.7h-3.8V76h3.8v-1.1h-3.8v-.7h2.5V73h-2.1v-.7h2.1v-1.2h.7v1.2h2.1v.7h-2.1v1.3h2.6v.7h-1.3zm-3.3 2.2c.5.5 1.1 1.2 1.3 1.7l-.6.4c-.2-.5-.8-1.2-1.3-1.8l.6-.3zm6.7-2.1v5.3h-.8v-8.7h3.6V75h-2.8zm0-2.9v.9h2.2v-.8h-2.2zm2.1 2.3v-.9h-2.2v.9h2.2zm0 4.9v.5h-.7v-4.1h3.7v3.6h-3zm0-3v.9h2.3v-.9h-2.3zm2.3 2.5v-1h-2.3v1h2.3zm3 .5c0 .5-.1.7-.4.8-.3.1-.8.1-1.7.1 0-.2-.1-.6-.3-.8h1.4c.2 0 .2-.1.2-.2V75h-2.9v-3.4h3.7v7.7zm-3-7.2v.9h2.2v-.8h-2.2zm2.3 2.3v-.9h-2.2v.9h2.2zm3.3-1.1c0-.5.4-.8.8-.8s.8.3.8.8-.4.7-.8.7c-.4.1-.8-.2-.8-.7zm0 4.9c0-.5.4-.8.8-.8s.8.3.8.8c0 .4-.4.7-.8.7-.4.1-.8-.2-.8-.7zm4.4.1c.3.3.8.6 1.2.6.9 0 1.8-.8 1.8-3.1-.4.5-1.1.9-1.7.9-1.2 0-2-.8-2-2.3 0-1.4 1-2.4 2.1-2.4 1.4 0 2.5 1.2 2.5 3.5 0 3-1.3 4.1-2.7 4.1-.8 0-1.3-.3-1.8-.8l.6-.5zm3-3.2c-.1-1.5-.7-2.3-1.6-2.3-.7 0-1.2.7-1.2 1.7s.4 1.6 1.3 1.6c.5-.1 1-.3 1.5-1zm2.2-.2c0-.4.3-.7.7-.7s.7.3.7.7c0 .4-.3.7-.7.7s-.7-.3-.7-.7zm0 4c0-.4.3-.7.7-.7s.7.3.7.7c0 .4-.3.7-.7.7s-.7-.3-.7-.7zm2.3-.3l.5-.6c.4.4 1 .8 1.8.8.9 0 1.5-.5 1.5-1.4 0-.9-.6-1.5-2.3-1.5v-.7c1.5 0 2-.6 2-1.4 0-.7-.5-1.2-1.2-1.2-.6 0-1.1.3-1.5.7l-.5-.6c.5-.5 1.2-.9 2-.9 1.2 0 2.1.7 2.1 1.8 0 .9-.5 1.5-1.3 1.8.9.2 1.6.9 1.6 1.9 0 1.3-1 2.1-2.3 2.1-1.2.2-1.9-.2-2.4-.8zm5.8-2.8c0-2.5.9-3.8 2.3-3.8s2.3 1.2 2.3 3.8c0 2.5-.9 3.8-2.3 3.8-1.5 0-2.3-1.2-2.3-3.8zm3.6 0c0-2.1-.6-3-1.4-3-.8 0-1.4.9-1.4 3 0 2.2.6 3.1 1.4 3.1.9 0 1.4-.9 1.4-3.1zm6.1.2c-.5-.5-1-.8-1.7-.8-.8 0-1.5.5-1.9 1.3l-.7-.4c.6-1.1 1.5-1.7 2.6-1.7.9 0 1.5.4 2.2 1.1.5.5 1 .8 1.7.8.8 0 1.5-.5 1.9-1.3l.7.4c-.6 1.1-1.5 1.7-2.6 1.7-.8 0-1.5-.4-2.2-1.1zm6.2 2.7h1.6v-5.5h-1.3v-.6c.7-.1 1.1-.3 1.5-.5h.7v6.6h1.5v.8h-4v-.8zm5.1-1c0-1 .7-1.7 1.3-2-.5-.4-1-.9-1-1.7 0-1.1.9-1.9 2-1.9 1.2 0 2 .8 2 1.9 0 .8-.5 1.4-1 1.8v.1c.6.4 1.2.9 1.2 1.9 0 1.1-.9 1.9-2.3 1.9-1.2-.1-2.2-.9-2.2-2zm3.8 0c0-1-.9-1.3-1.9-1.8-.6.4-1 1-1 1.7 0 .8.6 1.3 1.5 1.3.8.1 1.4-.5 1.4-1.2zm-.2-3.7c0-.7-.5-1.3-1.2-1.3s-1.2.5-1.2 1.2c0 .9.8 1.3 1.6 1.6.6-.4.8-.9.8-1.5zm2.2.9c0-.4.3-.7.7-.7s.7.3.7.7c0 .4-.3.7-.7.7s-.7-.3-.7-.7zm0 4c0-.4.3-.7.7-.7s.7.3.7.7c0 .4-.3.7-.7.7s-.7-.3-.7-.7zm2.6-3.1c0-2.5.9-3.8 2.3-3.8s2.3 1.2 2.3 3.8c0 2.5-.9 3.8-2.3 3.8s-2.3-1.2-2.3-3.8zm3.7 0c0-2.1-.6-3-1.4-3-.8 0-1.4.9-1.4 3 0 2.2.6 3.1 1.4 3.1.8 0 1.4-.9 1.4-3.1zm1.8 0c0-2.5.9-3.8 2.3-3.8s2.3 1.2 2.3 3.8c0 2.5-.9 3.8-2.3 3.8s-2.3-1.2-2.3-3.8zm3.7 0c0-2.1-.6-3-1.4-3-.8 0-1.4.9-1.4 3 0 2.2.6 3.1 1.4 3.1.9 0 1.4-.9 1.4-3.1zm3.7-.1c0-1.9.8-3.5 2-4.8l.6.3c-1.2 1.2-1.9 2.7-1.9 4.4s.7 3.3 1.9 4.4l-.6.3c-1.2-1.1-2-2.6-2-4.6zm12.2 1.1h-4.1v3.5h-.8v-3.5h-4V76h4v-3.5h-3.5v-.7h7.8v.7h-3.5V76h4.1v.8zm-7.1-3.8c.4.7.8 1.7.9 2.2l-.7.2c-.1-.6-.5-1.6-.9-2.3l.7-.1zm4 2.3c.4-.6.8-1.6 1.1-2.4l.8.2c-.4.8-.8 1.7-1.2 2.3l-.7-.1zm11.9-3.5v8.3h-.8v-.6h-5v.6h-.8v-8.3h6.6zm-5.8.8v2.7h5v-2.7h-5zm5 6.2V76h-5v2.8h5zm5.2-3.1c0 1.9-.8 3.5-2 4.8l-.6-.3c1.1-1.2 1.9-2.7 1.9-4.4s-.7-3.3-1.9-4.4l.6-.3c1.2 1.1 2 2.7 2 4.6z" transform="translate(-947.09 -20.5)" fill="#9f9188"/><g class="st0"><path class="st2" d="M894.8 51.9c1.5 0 2.6.5 3.4 1.6 1 1.2 1.5 3.3 1.5 6.1s-.5 4.9-1.5 6.1c-.8 1-1.9 1.5-3.4 1.5s-2.6-.6-3.5-1.7c-.9-1.1-1.3-3.1-1.3-6 0-2.8.5-4.9 1.5-6.1.7-1 1.8-1.5 3.3-1.5zm0 2.4c-.3 0-.7.1-.9.3-.3.2-.5.6-.6 1.2-.2.7-.3 2-.3 3.8s.1 3 .3 3.6c.2.7.4 1.1.7 1.3.3.2.6.3.9.3s.7-.1.9-.3c.3-.2.5-.6.6-1.2.2-.7.3-2 .3-3.8s-.1-3-.3-3.6c-.2-.7-.4-1.1-.7-1.3-.3-.2-.6-.3-.9-.3zm6.7 8.7l2.8-.3c.1.7.3 1.3.7 1.6.4.4.9.6 1.4.6.6 0 1.1-.2 1.5-.7.4-.5.6-1.1.6-1.8s-.2-1.3-.6-1.7-.9-.6-1.4-.6c-.4 0-.8.1-1.3.2l.3-2.3c.8 0 1.4-.1 1.8-.5.4-.4.6-.8.6-1.4 0-.5-.2-.9-.5-1.2s-.7-.5-1.2-.5-.9.2-1.3.5c-.3.3-.6.8-.6 1.5l-2.7-.5c.2-.9.5-1.6.8-2.2.4-.5.9-1 1.6-1.3.7-.3 1.4-.5 2.2-.5 1.4 0 2.5.5 3.4 1.4.7.7 1.1 1.6 1.1 2.5 0 1.3-.7 2.4-2.2 3.2.9.2 1.5.6 2.1 1.2.5.6.8 1.4.8 2.3 0 1.3-.5 2.4-1.4 3.4-1 .9-2.2 1.4-3.6 1.4s-2.5-.4-3.4-1.2c-.9-.8-1.4-1.8-1.5-3.1zm12 0v-2.9h5.7V63h-5.7zm12.4 4v-3h-6.2v-2.5l6.5-9.5h2.4v9.5h1.9V64h-1.9v3h-2.7zm0-5.6v-5.1l-3.5 5.1h3.5zm5.9 1.6l2.8-.3c.1.7.3 1.3.7 1.6.4.4.9.6 1.4.6.6 0 1.1-.2 1.5-.7.4-.5.6-1.1.6-1.8s-.2-1.3-.6-1.7-.9-.6-1.4-.6c-.4 0-.8.1-1.3.2l.3-2.3c.8 0 1.4-.1 1.8-.5.4-.4.6-.8.6-1.4 0-.5-.2-.9-.5-1.2s-.7-.5-1.2-.5-.9.2-1.3.5c-.3.3-.6.8-.6 1.5l-2.7-.5c.2-.9.5-1.6.8-2.2.4-.5.9-1 1.6-1.3.7-.3 1.4-.5 2.2-.5 1.4 0 2.5.5 3.4 1.4.7.7 1.1 1.6 1.1 2.5 0 1.3-.7 2.4-2.2 3.2.9.2 1.5.6 2.1 1.2.5.6.8 1.4.8 2.3 0 1.3-.5 2.4-1.4 3.4-1 .9-2.2 1.4-3.6 1.4s-2.5-.4-3.4-1.2c-.8-.8-1.3-1.8-1.5-3.1zm21.6-7.4l-2.8.3c-.1-.6-.2-1-.5-1.3-.3-.3-.7-.4-1.1-.4-.6 0-1.1.3-1.5.8-.4.5-.7 1.7-.8 3.4.7-.8 1.6-1.3 2.7-1.3 1.2 0 2.2.5 3.1 1.4.9.9 1.3 2.1 1.3 3.5 0 1.5-.5 2.8-1.4 3.7-.9.9-2.1 1.4-3.5 1.4-1.5 0-2.8-.6-3.7-1.8-1-1.2-1.5-3.1-1.5-5.8 0-2.8.5-4.7 1.5-6s2.3-1.8 4-1.8c1.1 0 2.1.3 2.8 1 .7.8 1.2 1.7 1.4 2.9zm-6.6 6.3c0 .9.2 1.7.6 2.2.4.5.9.8 1.5.8.5 0 1-.2 1.3-.6.4-.4.5-1.1.5-2.1s-.2-1.7-.6-2.1c-.4-.5-.9-.7-1.4-.7-.6 0-1 .2-1.4.7-.3.3-.5 1-.5 1.8zm8.4 1.1l2.8-.3c.1.7.3 1.3.7 1.6.4.4.9.6 1.4.6.6 0 1.1-.2 1.5-.7.4-.5.6-1.1.6-1.8s-.2-1.3-.6-1.7-.9-.6-1.4-.6c-.4 0-.8.1-1.3.2l.3-2.3c.8 0 1.4-.1 1.8-.5.4-.4.6-.8.6-1.4 0-.5-.2-.9-.5-1.2s-.7-.5-1.2-.5-.9.2-1.3.5c-.3.3-.6.8-.6 1.5l-2.7-.5c.2-.9.5-1.6.8-2.2.4-.5.9-1 1.6-1.3.7-.3 1.4-.5 2.2-.5 1.4 0 2.5.5 3.4 1.4.7.7 1.1 1.6 1.1 2.5 0 1.3-.7 2.4-2.2 3.2.9.2 1.5.6 2.1 1.2.5.6.8 1.4.8 2.3 0 1.3-.5 2.4-1.4 3.4-1 .9-2.2 1.4-3.6 1.4s-2.5-.4-3.4-1.2c-.9-.8-1.4-1.8-1.5-3.1zm12 0v-2.9h5.7V63h-5.7zm9.2-4.1c-.7-.3-1.3-.7-1.6-1.3-.3-.5-.5-1.2-.5-1.8 0-1.1.4-2 1.2-2.8.8-.7 1.9-1.1 3.3-1.1s2.5.4 3.3 1.1c.8.7 1.2 1.7 1.2 2.8 0 .7-.2 1.3-.5 1.9-.4.5-.9 1-1.5 1.2.8.3 1.5.8 1.9 1.5.4.6.7 1.4.7 2.2 0 1.4-.4 2.5-1.3 3.4-.9.9-2.1 1.3-3.5 1.3s-2.5-.4-3.4-1.1c-1.1-.8-1.6-2-1.6-3.5 0-.8.2-1.6.6-2.2.2-.7.9-1.2 1.7-1.6zm.4 3.5c0 .8.2 1.4.6 1.9.4.4.9.7 1.5.7s1.1-.2 1.5-.6c.4-.4.6-1 .6-1.9 0-.7-.2-1.3-.6-1.7-.4-.4-.9-.6-1.5-.6-.7 0-1.2.2-1.6.7-.4.4-.5 1-.5 1.5zm.2-6.4c0 .6.2 1 .5 1.3.3.3.8.5 1.3.5s1-.2 1.3-.5c.3-.3.5-.8.5-1.3s-.2-1-.5-1.3c-.3-.3-.8-.5-1.3-.5-.6 0-1 .2-1.3.5s-.5.7-.5 1.3zm8.7 7.5l2.8-.3c.1.6.2 1 .5 1.3s.7.4 1.1.4c.6 0 1.1-.3 1.5-.8s.7-1.7.8-3.4c-.7.8-1.6 1.3-2.7 1.3-1.2 0-2.2-.5-3.1-1.4-.9-.9-1.3-2.1-1.3-3.6s.5-2.8 1.4-3.7c.9-.9 2.1-1.4 3.5-1.4 1.5 0 2.8.6 3.8 1.8 1 1.2 1.5 3.1 1.5 5.8 0 2.7-.5 4.7-1.5 5.9s-2.3 1.8-4 1.8c-1.2 0-2.1-.3-2.9-.9-.7-.6-1.2-1.5-1.4-2.8zm6.5-6.3c0-.9-.2-1.7-.6-2.2-.4-.5-.9-.8-1.5-.8-.5 0-1 .2-1.3.6-.4.4-.5 1.1-.5 2.1s.2 1.7.6 2.1c.4.5.9.7 1.4.7.6 0 1-.2 1.4-.7.3-.3.5-.9.5-1.8zm7.6 1.7c-.7-.3-1.3-.7-1.6-1.3-.3-.5-.5-1.2-.5-1.8 0-1.1.4-2 1.2-2.8.8-.7 1.9-1.1 3.3-1.1s2.5.4 3.3 1.1c.8.7 1.2 1.7 1.2 2.8 0 .7-.2 1.3-.5 1.9-.4.5-.9 1-1.5 1.2.8.3 1.5.8 1.9 1.5.4.6.7 1.4.7 2.2 0 1.4-.4 2.5-1.3 3.4-.9.9-2.1 1.3-3.5 1.3s-2.5-.4-3.4-1.1c-1.1-.8-1.6-2-1.6-3.5 0-.8.2-1.6.6-2.2.2-.7.8-1.2 1.7-1.6zm.3 3.5c0 .8.2 1.4.6 1.9.4.4.9.7 1.5.7s1.1-.2 1.5-.6c.4-.4.6-1 .6-1.9 0-.7-.2-1.3-.6-1.7-.4-.4-.9-.6-1.5-.6-.7 0-1.2.2-1.6.7-.3.4-.5 1-.5 1.5zm.3-6.4c0 .6.2 1 .5 1.3.3.3.8.5 1.3.5s1-.2 1.3-.5c.3-.3.5-.8.5-1.3s-.2-1-.5-1.3c-.3-.3-.8-.5-1.3-.5-.6 0-1 .2-1.3.5s-.5.7-.5 1.3zm16 11h-2.9V56.1c-1.1 1-2.3 1.7-3.7 2.2v-2.6c.8-.2 1.6-.7 2.5-1.4.9-.7 1.5-1.5 1.8-2.4h2.3V67z" transform="translate(-867.09 -25)"/></g><path class="st2" d="M873.1 62.2c3.3 6.2 6.9 6.9 8 6.3l.3-.1-2.5-4.8-.3.1c-.9.5-1.7-.9-2.8-2.9s-1.7-3.5-.8-4l.3-.1-2.5-4.8-.3.1c-1.2.6-2.7 3.9.6 10.2zm9.7 5.3c.4-.2.2-.7 0-1.1l-1.7-3.2c-.2-.3-.5-.5-.7-.4-.2.1-.5.2-1 .5l2.5 4.8.9-.6zm-6.1-11.7c.2-.1.3-.5.1-.8-.2-.3-1.7-3.2-1.7-3.2-.2-.4-.5-.9-.9-.7l-.9.5 2.5 4.8c.4-.4.8-.6.9-.6z" transform="translate(-867.09 -25)"/><path d="M942.5 8h145c5.2 0 9.5 4.3 9.5 9.5s-4.3 9.5-9.5 9.5h-145c-5.2 0-9.5-4.3-9.5-9.5s4.3-9.5 9.5-9.5z" fill="#fff" transform="translate(-933 -8)"/><path class="st2" d="M942.5 9c-4.7 0-8.5 3.8-8.5 8.5s3.8 8.5 8.5 8.5h145c4.7 0 8.5-3.8 8.5-8.5s-3.8-8.5-8.5-8.5h-145m0-1h145c5.2 0 9.5 4.3 9.5 9.5s-4.3 9.5-9.5 9.5h-145c-5.2 0-9.5-4.3-9.5-9.5s4.3-9.5 9.5-9.5z" transform="translate(-933 -8)"/><g class="st0"><path class="st2" d="M943.8 18.2c.7-.2 1.5-.4 2.2-.4 1.4 0 2.5.8 2.5 2s-.8 2-2.1 2.3c-.4.1-.9.1-1.2.1l-.3-.8c.4 0 .8 0 1.2-.1.9-.2 1.7-.6 1.7-1.5 0-.8-.8-1.3-1.7-1.3-.7 0-1.4.1-2.1.4V21c0 .9-.4 1.2-.9 1.2-.8 0-2.1-.7-2.1-1.6 0-.8 1-1.7 2.2-2.2v-1.9h-2v-.8c.5.1.9.1 1.3.1h.8v-1.1c0-.2 0-.5-.1-.7h.9v1.8c.7-.1 1.5-.2 2-.4v.8c-.6.1-1.3.3-2.1.3v1.7zm-.7 2.8v-1.7c-.8.4-1.4.9-1.4 1.4s.7.8 1.1.8c.2-.1.3-.2.3-.5zm3.9-5.9c.7.4 1.8 1 2.3 1.4l-.4.6c-.5-.5-1.6-1.1-2.2-1.5l.3-.5zm7.2.7h-3.1v1.4h-.7v-1.9h3.8v-.6H951v-.6h7.3v.6H955v.6h3.9v1.9h-.7v-1.4H955v2.3h-.7v-2.3zm3.6 6.3c.5 0 .6-.2.7-1.2.2.1.4.2.6.2-.1 1.2-.3 1.5-1.3 1.5h-2.3c-1.1 0-1.4-.2-1.4-1v-.3h-2.2v.5h-.7v-3.5h6.7v2.9h-3.1v.3c0 .3.1.4.7.4h2.3zm-6.4-4.8h2.3v.5h-2.3v-.5zm2.3-.5h-2.1v-.5h2.1v.5zm-1.8 2.2v.7h2.2V19h-2.2zm2.3 1.8v-.7H952v.7h2.2zm3.1-1.8h-2.4v.7h2.4V19zm0 1.8v-.7h-2.4v.7h2.4zm.3-4.5v.5h-2.1v-.5h2.1zm-2.2 1h2.4v.5h-2.4v-.5zm4.6-2h3.7v.6H960v-.6zm3.4 7h-2.3v.5h-.6v-3.3h2.9v2.8zm0-5h-2.9v-.6h2.9v.6zm-2.9.8h2.9v.6h-2.9v-.6zm2.9-3.5h-2.8V14h2.8v.6zm-2.3 5.4v1.7h1.6V20h-1.6zm5.8-2.8v1.7h1.9v3.8h-.8v-.4h-2.9v.5h-.7V19h1.7v-1.7h-2.3v-.7h2.3V15c-.6.1-1.3.1-1.9.2 0-.2-.1-.5-.2-.6 1.5-.1 3.3-.4 4.3-.7l.5.6c-.6.2-1.2.3-2 .4v1.7h2.3v.7h-2.2zm1.1 2.4h-2.9v2h2.9v-2zm2.9-4.2c.6-.1 2.5-.2 4.3-.4 1.1-.1 2-.1 2.7-.2v.8c-.6 0-1.4 0-1.9.2-1.4.4-2.3 2-2.3 3.1 0 1.9 1.8 2.5 3.4 2.6l-.3.8c-1.8-.1-3.9-1.1-3.9-3.3 0-1.5.9-2.8 1.8-3.3-.9.1-3.6.4-4.6.6l-.1-.9h.9zm6.5 2.8l-.5.2c-.2-.5-.5-1-.8-1.4l.5-.2c.2.3.6 1 .8 1.4zm1.1-.4l-.5.2c-.2-.5-.5-1-.8-1.4l.5-.2c.2.3.6.9.8 1.4zm5 3.7c.3 0 .6-.1.8-.1 1.3-.3 2.5-1.2 2.5-2.9 0-1.5-.9-2.7-2.6-2.9-.1.9-.3 1.9-.6 2.8-.6 2-1.4 3.1-2.3 3.1-.9 0-1.8-1-1.8-2.6 0-2.1 1.9-4 4.3-4 2.3 0 3.8 1.6 3.8 3.6 0 2.1-1.4 3.5-3.7 3.8l-.4-.8zm-.6-3.2c.2-.8.4-1.8.5-2.7-1.9.2-3.1 1.9-3.1 3.2 0 1.2.6 1.8 1 1.8.5 0 1.1-.7 1.6-2.3zm9.3-.1c.7-.2 1.5-.4 2.2-.4 1.4 0 2.5.8 2.5 2s-.8 2-2.1 2.3c-.4.1-.9.1-1.2.1l-.3-.8c.4 0 .8 0 1.2-.1.9-.2 1.7-.6 1.7-1.5 0-.8-.8-1.3-1.7-1.3-.7 0-1.4.1-2.1.4V21c0 .9-.3 1.2-.9 1.2-.8 0-2.1-.7-2.1-1.6 0-.8 1-1.7 2.2-2.2v-1.9h-2v-.8c.5.1.9.1 1.3.1h.8v-1.1c0-.2 0-.5-.1-.7h.9v1.8c.7-.1 1.5-.2 2-.4v.8c-.6.1-1.3.3-2.1.3v1.7zm-.7 2.8v-1.7c-.8.4-1.4.9-1.4 1.4s.7.8 1.1.8c.2-.1.3-.2.3-.5zm3.9-5.9c.7.4 1.8 1 2.3 1.4l-.4.6c-.5-.5-1.6-1.1-2.2-1.5l.3-.5zm4.3 2.5v5.2h-.7v-8.7h3.6v3.5h-2.9zm0-2.9v.8h2.1v-.8h-2.1zm2.2 2.3v-.9h-2.1v.9h2.1zm-.1 4.4v.6h-.7v-3.5h3.7v2.9h-3zm0-2.3v1.6h2.3v-1.6h-2.3zm5.4 2.7c0 .5-.1.7-.4.9-.3.1-.9.1-1.8.1 0-.2-.2-.6-.3-.8h1.5c.2 0 .2-.1.2-.2v-4.2h-2.9v-3.5h3.7v7.7zm-3-7.1v.8h2.2v-.8h-2.2zm2.2 2.3v-.9h-2.2v.9h2.2zm3.7-1c0 .6 0 1.5.1 2.3.2 1.7.6 2.7 1.3 2.7.5 0 1-1 1.2-2l.6.7c-.6 1.7-1.2 2.2-1.9 2.2-.9 0-1.8-.9-2.1-3.5-.1-.9-.1-2.1-.1-2.6 0-.2 0-.6-.1-.9h1V16zm6.9 4.2l-.8.3c-.2-1.8-.8-3.7-1.7-4.9l.8-.3c.9 1.2 1.6 3.2 1.7 4.9zm5.8-6.5c1.1 1.5 2.8 2.9 4.4 3.6-.2.2-.4.4-.5.6-1.5-.8-3.3-2.2-4.2-3.5-.8 1.2-2.4 2.6-4.1 3.5-.1-.2-.3-.4-.5-.6 1.7-.9 3.4-2.4 4.2-3.7h.7zm-3.3 5.1h6.1v4h-.8v-.4h-4.6v.4h-.7v-4zm5.5-1.9v.7h-5v-.7h5zm-4.8 2.6v2.2h4.6v-2.2h-4.6zm11.4-3.6c-.1.2-.3.5-.4.7v.6c1.1-.9 2.2-1.2 3.1-1.2 1.4 0 2.6 1 2.6 2.5 0 2-1.4 3-3.6 3.5l-.4-.8c1.7-.2 3.2-1 3.2-2.7 0-.8-.6-1.7-1.9-1.7-1.1 0-2.2.6-3.1 1.4v4.2h-.9v-3.5c-.5.7-1.1 1.7-1.6 2.3l-.5-.7c.5-.7 1.7-2.2 2.2-3 0-.3 0-.6.1-1-.5 0-1.3.2-1.9.2l-.1-.8h.7c.3 0 .9-.1 1.4-.2 0-.5.1-.8.1-.9v-.7h.9c0 .2-.1.8-.2 1.5h.1l.2.3zm13.3-1.6v2.1c.4 0 .8-.1 1.1-.1h.8v.8h-1.9c0 .7-.1 1.6-.1 2.1-.1.4-.3.6-.8.6-.4 0-1-.1-1.3-.1V19c.3.1.8.1 1 .1.2 0 .3 0 .4-.3 0-.3.1-1 .1-1.6-1 .1-2.2.2-3.2.3v2.4c0 1.1 0 1.4 1.8 1.4 1.1 0 2.3-.1 2.9-.2v.8c-.7.1-1.9.2-2.9.2-2.3 0-2.5-.5-2.6-2.1v-2.5l-1 .1c-.3 0-.7.1-1 .1l-.2-.7c.3 0 .7 0 1-.1.2 0 .6-.1 1.1-.1v-1.4c0-.3 0-.5-.1-.8h.9v2.1c1-.1 2.1-.2 3.2-.3V15c0-.2 0-.6-.1-.7h.9zm4.8 2.8c.6 0 1.1.5 1.1 1.1s-.5 1.1-1.1 1.1c-.6 0-1.1-.5-1.1-1.1s.5-1.1 1.1-1.1zm4.6 2c-.1.4-.2.8-.2 1.1 0 .8.8 1.3 2.3 1.3 1.4 0 2.6-.1 3.4-.4v.8c-.7.2-2 .3-3.4.3-2 0-3.2-.7-3.2-1.9 0-.5.1-1 .2-1.4l.9.2zm-.4-4c.7.1 1.6.1 2.6.1.9 0 2-.1 2.7-.1v.8c-.7 0-1.7.1-2.7.1-1 0-1.8 0-2.6-.1v-.8zm6.4.3l-.5.2c-.2-.4-.5-1-.8-1.4l.5-.2c.2.3.6 1 .8 1.4zm1.1-.5l-.6.2c-.2-.4-.5-1-.8-1.4l.5-.2c.3.4.7 1.1.9 1.4zm2.5 2.5c.4.4 1.3 1.4 1.5 1.7l-.5.6c-.2-.3-.6-.9-1-1.4v4.5h-.7V18c-.4 1.1-.9 2.3-1.4 2.9-.1-.2-.3-.5-.4-.7.7-.8 1.4-2.4 1.8-3.8h-1.5v-.7h1.6v-2.1h.7v2.1h1.4v.7h-1.4v1zm6.3-3.2v8.4h-.7V22h-3v.6h-.7v-8.5h4.4zm-3.7.7v1.7h3v-1.7h-3zm0 4.1h3v-1.7h-3V19zm3 2.4v-1.7h-3v1.7h3zm5.6-5.5h-3.7v-.6h3.7v.6zm-.3 6.3h-2.3v.5h-.6v-3.3h2.9v2.8zm0-5h-2.9v-.6h2.9v.6zm-2.9.8h2.9v.6h-2.9V18zm2.9-3.4h-2.8V14h2.8v.6zm-2.3 5.3v1.7h1.6v-1.7h-1.6zm5.7-.7c0 .5.3 2.2 2.4 2.9-.1.2-.3.5-.5.6-1.5-.6-2.2-1.9-2.3-2.5-.2.6-.8 1.9-2.6 2.5-.1-.2-.3-.4-.4-.6 2.3-.8 2.7-2.4 2.7-3v-1.4h.7v1.5zm-3.1 1.1c.5-.3.8-1 .9-1.7l.7.1c-.1.7-.5 1.5-1 1.9l-.6-.3zm5-2.2c-.5-.5-1.4-1.1-2.3-1.6-.4.8-1 1.3-2.2 1.7-.1-.2-.3-.4-.4-.6 2-.6 2.3-1.8 2.4-3.9h.7c0 .8-.1 1.5-.3 2.1.9.5 2 1.2 2.5 1.7l-.4.6zm-3.4-3.7c-.1.7-.4 1.4-.8 1.8l-.6-.3c.4-.3.7-1 .8-1.6l.6.1zm3.6.1c-.3.6-.7 1.2-1 1.6l-.5-.2c.3-.4.7-1.1.8-1.6l.7.2zm-1.5 5.7c.3-.5.7-1.2.9-1.7l.7.2c-.3.6-.7 1.3-1.1 1.7l-.5-.2z" transform="translate(-933 -8)"/></g></svg>