<svg xmlns="http://www.w3.org/2000/svg" width="374" height="101" viewBox="0 0 374 101"><g transform="translate(-346 -14)"><rect width="374" height="101" rx="12" transform="translate(346 14)" fill="#fff"/><path d="M12,4a8.009,8.009,0,0,0-8,8V89a8.009,8.009,0,0,0,8,8H362a8.009,8.009,0,0,0,8-8V12a8.009,8.009,0,0,0-8-8H12m0-4H362a12,12,0,0,1,12,12V89a12,12,0,0,1-12,12H12A12,12,0,0,1,0,89V12A12,12,0,0,1,12,0Z" transform="translate(346 14)" fill="#adcc08"/><text transform="translate(363 54)" fill="#483c34" font-size="24" font-family="NotoSansCJKjp-Bold, Noto Sans CJK JP" font-weight="700"><tspan x="0" y="0">資料請求</tspan></text><text transform="translate(485.004 54)" fill="#483c34" font-size="24" font-family="NotoSansCJKjp-Bold, Noto Sans CJK JP" font-weight="700"><tspan x="0" y="0">無料相談</tspan></text><text transform="translate(607 54)" fill="#483c34" font-size="24" font-family="NotoSansCJKjp-Bold, Noto Sans CJK JP" font-weight="700"><tspan x="0" y="0">セミナー</tspan></text><path d="M0,0H369a0,0,0,0,1,0,0V32a10,10,0,0,1-10,10H10A10,10,0,0,1,0,32V0A0,0,0,0,1,0,0Z" transform="translate(349 70)" fill="#adcc08"/><text transform="translate(369 98)" fill="#fff" font-size="24" font-family="NotoSansCJKjp-Bold, Noto Sans CJK JP" font-weight="700" letter-spacing="0.041em"><tspan x="0" y="0">お問い合わせはこちらから</tspan></text><path d="M-20801.85-314.559a.5.5,0,0,1-.5-.5v-28a.5.5,0,0,1,.5-.5.5.5,0,0,1,.5.5v28A.5.5,0,0,1-20801.85-314.559Z" transform="translate(21273.855 374.559)" fill="#adcc08"/><path d="M-20801.85-314.559a.5.5,0,0,1-.5-.5v-28a.5.5,0,0,1,.5-.5.5.5,0,0,1,.5.5v28A.5.5,0,0,1-20801.85-314.559Z" transform="translate(21395.852 374.559)" fill="#adcc08"/><g transform="translate(23 12)"><ellipse cx="13.5" cy="13" rx="13.5" ry="13" transform="translate(650 64)" fill="#fff"/><path d="M6.6,7.6H0a1,1,0,0,1-1-1,1,1,0,0,1,1-1H5.6V0a1,1,0,0,1,1-1,1,1,0,0,1,1,1V6.6A1,1,0,0,1,6.6,7.6Z" transform="translate(657.5 77.168) rotate(-45)" fill="#adcc08"/></g></g></svg>