<?xml version="1.0" encoding="utf-8"?>
<!-- Generator: Adobe Illustrator 26.5.2, SVG Export Plug-In . SVG Version: 6.00 Build 0)  -->
<svg version="1.1" id="レイヤー_1" xmlns="http://www.w3.org/2000/svg" xmlns:xlink="http://www.w3.org/1999/xlink" x="0px"
	 y="0px" viewBox="0 0 164 62" style="enable-background:new 0 0 164 62;" xml:space="preserve" xlink:href="data:image">
<style type="text/css">
	.st0{enable-background:new    ;}
	.st1{fill:#9F9188;}
	.st2{fill:#483C34;}
	.st3{fill:#FFFFFF;}
</style>
<g transform="translate(-933 -8)">
	<g transform="translate(-14.09 -12.5)">
		<g class="st0">
			<path class="st1" d="M967.1,76.1c-0.5,1.1-1.3,1.9-2.3,2.5c1.1,0.5,2.3,0.8,3.7,1c-0.2,0.2-0.4,0.5-0.4,0.7
				c-1.5-0.2-2.8-0.6-4-1.2c-1.2,0.6-2.6,1-4,1.2c-0.1-0.2-0.3-0.5-0.4-0.7c1.4-0.2,2.7-0.5,3.8-1c-0.8-0.6-1.5-1.2-2-2.1l0.1,0H961
				v-0.7h5.4l0.1,0L967.1,76.1z M960.5,76h-0.7v-2h1.6c-0.1-0.4-0.4-0.9-0.7-1.3l0.6-0.2c0.3,0.4,0.6,0.9,0.7,1.3l-0.6,0.2h4.3
				c0.3-0.5,0.7-1.2,0.9-1.7l0.7,0.2c-0.3,0.5-0.6,1-0.9,1.5h1.7v2h-0.7v-1.4h-7.1V76z M967.8,71.7c-2,0.4-5.1,0.7-7.7,0.8
				c0-0.2-0.1-0.5-0.2-0.6c2.6-0.1,5.6-0.4,7.3-0.7L967.8,71.7z M962.2,76.5c0.5,0.7,1.1,1.3,2,1.7c0.8-0.5,1.4-1,1.9-1.7H962.2z
				 M963.9,73.9c-0.1-0.4-0.3-1-0.5-1.5l0.7-0.1c0.2,0.5,0.5,1.1,0.5,1.4L963.9,73.9z"/>
			<path class="st1" d="M972.8,71.4c-0.3,0.7-0.6,1.5-1.1,2.2v6.6H971v-5.5c-0.3,0.4-0.7,0.9-1,1.2c-0.1-0.2-0.3-0.6-0.5-0.7
				c1-1,2-2.5,2.5-4L972.8,71.4z M978.6,74.1h-1.3v5.2c0,0.6-0.2,0.8-0.5,0.9c-0.4,0.1-1.1,0.1-2.1,0.1c0-0.2-0.2-0.5-0.3-0.7
				c0.8,0,1.7,0,1.9,0c0.2,0,0.3-0.1,0.3-0.3v-5.2h-4v-0.7h4v-2.1h0.7v2.1h1.3V74.1z M974.6,77.9c-0.3-0.6-0.9-1.7-1.4-2.5l0.6-0.3
				c0.5,0.8,1.2,1.8,1.5,2.4L974.6,77.9z"/>
			<path class="st1" d="M982.7,78.3h-2.1v0.8h-0.7v-7.3h2.8V78.3z M980.6,72.5v2.2h1.4v-2.2H980.6z M982,77.6v-2.3h-1.4v2.3H982z
				 M987.4,74.9V76h1.2v0.7h-1.2v2.7c0,0.4-0.1,0.6-0.4,0.8c-0.3,0.1-0.8,0.1-1.6,0.1c0-0.2-0.1-0.5-0.2-0.7c0.6,0,1.2,0,1.3,0
				c0.2,0,0.2-0.1,0.2-0.2v-2.7h-3.8V76h3.8v-1.1h-3.8v-0.7h2.5V73h-2.1v-0.7h2.1v-1.2h0.7v1.2h2.1V73h-2.1v1.3h2.6v0.7H987.4z
				 M984.1,77.1c0.5,0.5,1.1,1.2,1.3,1.7l-0.6,0.4c-0.2-0.5-0.8-1.2-1.3-1.8L984.1,77.1z"/>
			<path class="st1" d="M990.8,75v5.3H990v-8.7h3.6V75H990.8z M990.8,72.1V73h2.2v-0.8H990.8z M992.9,74.4v-0.9h-2.2v0.9H992.9z
				 M992.9,79.3v0.5h-0.7v-4.1h3.7v3.6H992.9z M992.9,76.3v0.9h2.3v-0.9H992.9z M995.2,78.8v-1h-2.3v1H995.2z M998.2,79.3
				c0,0.5-0.1,0.7-0.4,0.8c-0.3,0.1-0.8,0.1-1.7,0.1c0-0.2-0.1-0.6-0.3-0.8c0.6,0,1.2,0,1.4,0c0.2,0,0.2-0.1,0.2-0.2V75h-2.9v-3.4
				h3.7V79.3z M995.2,72.1V73h2.2v-0.8H995.2z M997.5,74.4v-0.9h-2.2v0.9H997.5z"/>
			<path class="st1" d="M1000.8,73.3c0-0.5,0.4-0.8,0.8-0.8c0.4,0,0.8,0.3,0.8,0.8s-0.4,0.7-0.8,0.7
				C1001.2,74.1,1000.8,73.8,1000.8,73.3z M1000.8,78.2c0-0.5,0.4-0.8,0.8-0.8c0.4,0,0.8,0.3,0.8,0.8c0,0.4-0.4,0.7-0.8,0.7
				C1001.2,79,1000.8,78.7,1000.8,78.2z"/>
			<path class="st1" d="M1005.2,78.3c0.3,0.3,0.8,0.6,1.2,0.6c0.9,0,1.8-0.8,1.8-3.1c-0.4,0.5-1.1,0.9-1.7,0.9c-1.2,0-2-0.8-2-2.3
				c0-1.4,1-2.4,2.1-2.4c1.4,0,2.5,1.2,2.5,3.5c0,3-1.3,4.1-2.7,4.1c-0.8,0-1.3-0.3-1.8-0.8L1005.2,78.3z M1008.2,75.1
				c-0.1-1.5-0.7-2.3-1.6-2.3c-0.7,0-1.2,0.7-1.2,1.7c0,1,0.4,1.6,1.3,1.6C1007.2,76,1007.7,75.8,1008.2,75.1z"/>
			<path class="st1" d="M1010.4,74.9c0-0.4,0.3-0.7,0.7-0.7s0.7,0.3,0.7,0.7c0,0.4-0.3,0.7-0.7,0.7S1010.4,75.3,1010.4,74.9z
				 M1010.4,78.9c0-0.4,0.3-0.7,0.7-0.7s0.7,0.3,0.7,0.7c0,0.4-0.3,0.7-0.7,0.7S1010.4,79.3,1010.4,78.9z"/>
			<path class="st1" d="M1012.7,78.6l0.5-0.6c0.4,0.4,1,0.8,1.8,0.8c0.9,0,1.5-0.5,1.5-1.4c0-0.9-0.6-1.5-2.3-1.5v-0.7
				c1.5,0,2-0.6,2-1.4c0-0.7-0.5-1.2-1.2-1.2c-0.6,0-1.1,0.3-1.5,0.7l-0.5-0.6c0.5-0.5,1.2-0.9,2-0.9c1.2,0,2.1,0.7,2.1,1.8
				c0,0.9-0.5,1.5-1.3,1.8v0c0.9,0.2,1.6,0.9,1.6,1.9c0,1.3-1,2.1-2.3,2.1C1013.9,79.6,1013.2,79.2,1012.7,78.6z"/>
			<path class="st1" d="M1018.5,75.8c0-2.5,0.9-3.8,2.3-3.8c1.4,0,2.3,1.2,2.3,3.8c0,2.5-0.9,3.8-2.3,3.8
				C1019.3,79.6,1018.5,78.4,1018.5,75.8z M1022.1,75.8c0-2.1-0.6-3-1.4-3c-0.8,0-1.4,0.9-1.4,3c0,2.2,0.6,3.1,1.4,3.1
				C1021.6,78.9,1022.1,78,1022.1,75.8z"/>
			<path class="st1" d="M1028.2,76c-0.5-0.5-1-0.8-1.7-0.8c-0.8,0-1.5,0.5-1.9,1.3l-0.7-0.4c0.6-1.1,1.5-1.7,2.6-1.7
				c0.9,0,1.5,0.4,2.2,1.1c0.5,0.5,1,0.8,1.7,0.8c0.8,0,1.5-0.5,1.9-1.3l0.7,0.4c-0.6,1.1-1.5,1.7-2.6,1.7
				C1029.6,77.1,1028.9,76.7,1028.2,76z"/>
			<path class="st1" d="M1034.4,78.7h1.6v-5.5h-1.3v-0.6c0.7-0.1,1.1-0.3,1.5-0.5h0.7v6.6h1.5v0.8h-4V78.7z"/>
			<path class="st1" d="M1039.5,77.7c0-1,0.7-1.7,1.3-2v0c-0.5-0.4-1-0.9-1-1.7c0-1.1,0.9-1.9,2-1.9c1.2,0,2,0.8,2,1.9
				c0,0.8-0.5,1.4-1,1.8v0.1c0.6,0.4,1.2,0.9,1.2,1.9c0,1.1-0.9,1.9-2.3,1.9C1040.5,79.6,1039.5,78.8,1039.5,77.7z M1043.3,77.7
				c0-1-0.9-1.3-1.9-1.8c-0.6,0.4-1,1-1,1.7c0,0.8,0.6,1.3,1.5,1.3C1042.7,79,1043.3,78.4,1043.3,77.7z M1043.1,74
				c0-0.7-0.5-1.3-1.2-1.3c-0.7,0-1.2,0.5-1.2,1.2c0,0.9,0.8,1.3,1.6,1.6C1042.9,75.1,1043.1,74.6,1043.1,74z"/>
			<path class="st1" d="M1045.3,74.9c0-0.4,0.3-0.7,0.7-0.7s0.7,0.3,0.7,0.7c0,0.4-0.3,0.7-0.7,0.7S1045.3,75.3,1045.3,74.9z
				 M1045.3,78.9c0-0.4,0.3-0.7,0.7-0.7s0.7,0.3,0.7,0.7c0,0.4-0.3,0.7-0.7,0.7S1045.3,79.3,1045.3,78.9z"/>
			<path class="st1" d="M1047.9,75.8c0-2.5,0.9-3.8,2.3-3.8c1.4,0,2.3,1.2,2.3,3.8c0,2.5-0.9,3.8-2.3,3.8
				C1048.8,79.6,1047.9,78.4,1047.9,75.8z M1051.6,75.8c0-2.1-0.6-3-1.4-3c-0.8,0-1.4,0.9-1.4,3c0,2.2,0.6,3.1,1.4,3.1
				C1051,78.9,1051.6,78,1051.6,75.8z"/>
			<path class="st1" d="M1053.4,75.8c0-2.5,0.9-3.8,2.3-3.8c1.4,0,2.3,1.2,2.3,3.8c0,2.5-0.9,3.8-2.3,3.8
				C1054.3,79.6,1053.4,78.4,1053.4,75.8z M1057.1,75.8c0-2.1-0.6-3-1.4-3c-0.8,0-1.4,0.9-1.4,3c0,2.2,0.6,3.1,1.4,3.1
				C1056.6,78.9,1057.1,78,1057.1,75.8z"/>
			<path class="st1" d="M1060.8,75.7c0-1.9,0.8-3.5,2-4.8l0.6,0.3c-1.2,1.2-1.9,2.7-1.9,4.4s0.7,3.3,1.9,4.4l-0.6,0.3
				C1061.6,79.2,1060.8,77.7,1060.8,75.7z"/>
			<path class="st1" d="M1073,76.8h-4.1v3.5h-0.8v-3.5h-4V76h4v-3.5h-3.5v-0.7h7.8v0.7h-3.5V76h4.1V76.8z M1065.9,73
				c0.4,0.7,0.8,1.7,0.9,2.2l-0.7,0.2c-0.1-0.6-0.5-1.6-0.9-2.3L1065.9,73z M1069.9,75.3c0.4-0.6,0.8-1.6,1.1-2.4l0.8,0.2
				c-0.4,0.8-0.8,1.7-1.2,2.3L1069.9,75.3z"/>
			<path class="st1" d="M1081.8,71.8v8.3h-0.8v-0.6h-5v0.6h-0.8v-8.3H1081.8z M1076,72.6v2.7h5v-2.7H1076z M1081,78.8V76h-5v2.8
				H1081z"/>
			<path class="st1" d="M1086.2,75.7c0,1.9-0.8,3.5-2,4.8l-0.6-0.3c1.1-1.2,1.9-2.7,1.9-4.4s-0.7-3.3-1.9-4.4l0.6-0.3
				C1085.4,72.2,1086.2,73.8,1086.2,75.7z"/>
		</g>
		<g transform="translate(80 -4.5)">
			<g class="st0">
				<path class="st2" d="M894.8,51.9c1.5,0,2.6,0.5,3.4,1.6c1,1.2,1.5,3.3,1.5,6.1c0,2.8-0.5,4.9-1.5,6.1c-0.8,1-1.9,1.5-3.4,1.5
					c-1.5,0-2.6-0.6-3.5-1.7c-0.9-1.1-1.3-3.1-1.3-6c0-2.8,0.5-4.9,1.5-6.1C892.2,52.4,893.3,51.9,894.8,51.9z M894.8,54.3
					c-0.3,0-0.7,0.1-0.9,0.3c-0.3,0.2-0.5,0.6-0.6,1.2c-0.2,0.7-0.3,2-0.3,3.8s0.1,3,0.3,3.6c0.2,0.7,0.4,1.1,0.7,1.3
					c0.3,0.2,0.6,0.3,0.9,0.3s0.7-0.1,0.9-0.3c0.3-0.2,0.5-0.6,0.6-1.2c0.2-0.7,0.3-2,0.3-3.8s-0.1-3-0.3-3.6
					c-0.2-0.7-0.4-1.1-0.7-1.3C895.4,54.4,895.1,54.3,894.8,54.3z"/>
				<path class="st2" d="M901.5,63l2.8-0.3c0.1,0.7,0.3,1.3,0.7,1.6c0.4,0.4,0.9,0.6,1.4,0.6c0.6,0,1.1-0.2,1.5-0.7
					c0.4-0.5,0.6-1.1,0.6-1.8c0-0.7-0.2-1.3-0.6-1.7s-0.9-0.6-1.4-0.6c-0.4,0-0.8,0.1-1.3,0.2l0.3-2.3c0.8,0,1.4-0.1,1.8-0.5
					c0.4-0.4,0.6-0.8,0.6-1.4c0-0.5-0.2-0.9-0.5-1.2s-0.7-0.5-1.2-0.5c-0.5,0-0.9,0.2-1.3,0.5c-0.3,0.3-0.6,0.8-0.6,1.5l-2.7-0.5
					c0.2-0.9,0.5-1.6,0.8-2.2c0.4-0.5,0.9-1,1.6-1.3c0.7-0.3,1.4-0.5,2.2-0.5c1.4,0,2.5,0.5,3.4,1.4c0.7,0.7,1.1,1.6,1.1,2.5
					c0,1.3-0.7,2.4-2.2,3.2c0.9,0.2,1.5,0.6,2.1,1.2c0.5,0.6,0.8,1.4,0.8,2.3c0,1.3-0.5,2.4-1.4,3.4c-1,0.9-2.2,1.4-3.6,1.4
					c-1.4,0-2.5-0.4-3.4-1.2C902.1,65.3,901.6,64.3,901.5,63z"/>
				<path class="st2" d="M913.5,63v-2.9h5.7V63H913.5z"/>
				<path class="st2" d="M925.9,67v-3h-6.2v-2.5l6.5-9.5h2.4v9.5h1.9V64h-1.9v3H925.9z M925.9,61.4v-5.1l-3.5,5.1H925.9z"/>
				<path class="st2" d="M931.8,63l2.8-0.3c0.1,0.7,0.3,1.3,0.7,1.6c0.4,0.4,0.9,0.6,1.4,0.6c0.6,0,1.1-0.2,1.5-0.7
					c0.4-0.5,0.6-1.1,0.6-1.8c0-0.7-0.2-1.3-0.6-1.7s-0.9-0.6-1.4-0.6c-0.4,0-0.8,0.1-1.3,0.2l0.3-2.3c0.8,0,1.4-0.1,1.8-0.5
					c0.4-0.4,0.6-0.8,0.6-1.4c0-0.5-0.2-0.9-0.5-1.2s-0.7-0.5-1.2-0.5c-0.5,0-0.9,0.2-1.3,0.5c-0.3,0.3-0.6,0.8-0.6,1.5l-2.7-0.5
					c0.2-0.9,0.5-1.6,0.8-2.2c0.4-0.5,0.9-1,1.6-1.3c0.7-0.3,1.4-0.5,2.2-0.5c1.4,0,2.5,0.5,3.4,1.4c0.7,0.7,1.1,1.6,1.1,2.5
					c0,1.3-0.7,2.4-2.2,3.2c0.9,0.2,1.5,0.6,2.1,1.2c0.5,0.6,0.8,1.4,0.8,2.3c0,1.3-0.5,2.4-1.4,3.4c-1,0.9-2.2,1.4-3.6,1.4
					c-1.4,0-2.5-0.4-3.4-1.2C932.5,65.3,932,64.3,931.8,63z"/>
				<path class="st2" d="M953.4,55.6l-2.8,0.3c-0.1-0.6-0.2-1-0.5-1.3c-0.3-0.3-0.7-0.4-1.1-0.4c-0.6,0-1.1,0.3-1.5,0.8
					c-0.4,0.5-0.7,1.7-0.8,3.4c0.7-0.8,1.6-1.3,2.7-1.3c1.2,0,2.2,0.5,3.1,1.4c0.9,0.9,1.3,2.1,1.3,3.5c0,1.5-0.5,2.8-1.4,3.7
					c-0.9,0.9-2.1,1.4-3.5,1.4c-1.5,0-2.8-0.6-3.7-1.8c-1-1.2-1.5-3.1-1.5-5.8c0-2.8,0.5-4.7,1.5-6s2.3-1.8,4-1.8
					c1.1,0,2.1,0.3,2.8,1C952.7,53.5,953.2,54.4,953.4,55.6z M946.8,61.9c0,0.9,0.2,1.7,0.6,2.2c0.4,0.5,0.9,0.8,1.5,0.8
					c0.5,0,1-0.2,1.3-0.6c0.4-0.4,0.5-1.1,0.5-2.1c0-1-0.2-1.7-0.6-2.1c-0.4-0.5-0.9-0.7-1.4-0.7c-0.6,0-1,0.2-1.4,0.7
					C947,60.4,946.8,61.1,946.8,61.9z"/>
				<path class="st2" d="M955.2,63l2.8-0.3c0.1,0.7,0.3,1.3,0.7,1.6c0.4,0.4,0.9,0.6,1.4,0.6c0.6,0,1.1-0.2,1.5-0.7
					c0.4-0.5,0.6-1.1,0.6-1.8c0-0.7-0.2-1.3-0.6-1.7s-0.9-0.6-1.4-0.6c-0.4,0-0.8,0.1-1.3,0.2l0.3-2.3c0.8,0,1.4-0.1,1.8-0.5
					c0.4-0.4,0.6-0.8,0.6-1.4c0-0.5-0.2-0.9-0.5-1.2s-0.7-0.5-1.2-0.5c-0.5,0-0.9,0.2-1.3,0.5c-0.3,0.3-0.6,0.8-0.6,1.5l-2.7-0.5
					c0.2-0.9,0.5-1.6,0.8-2.2c0.4-0.5,0.9-1,1.6-1.3c0.7-0.3,1.4-0.5,2.2-0.5c1.4,0,2.5,0.5,3.4,1.4c0.7,0.7,1.1,1.6,1.1,2.5
					c0,1.3-0.7,2.4-2.2,3.2c0.9,0.2,1.5,0.6,2.1,1.2c0.5,0.6,0.8,1.4,0.8,2.3c0,1.3-0.5,2.4-1.4,3.4c-1,0.9-2.2,1.4-3.6,1.4
					c-1.4,0-2.5-0.4-3.4-1.2C955.8,65.3,955.3,64.3,955.2,63z"/>
				<path class="st2" d="M967.2,63v-2.9h5.7V63H967.2z"/>
				<path class="st2" d="M976.4,58.9c-0.7-0.3-1.3-0.7-1.6-1.3c-0.3-0.5-0.5-1.2-0.5-1.8c0-1.1,0.4-2,1.2-2.8
					c0.8-0.7,1.9-1.1,3.3-1.1c1.4,0,2.5,0.4,3.3,1.1c0.8,0.7,1.2,1.7,1.2,2.8c0,0.7-0.2,1.3-0.5,1.9c-0.4,0.5-0.9,1-1.5,1.2
					c0.8,0.3,1.5,0.8,1.9,1.5c0.4,0.6,0.7,1.4,0.7,2.2c0,1.4-0.4,2.5-1.3,3.4c-0.9,0.9-2.1,1.3-3.5,1.3c-1.4,0-2.5-0.4-3.4-1.1
					c-1.1-0.8-1.6-2-1.6-3.5c0-0.8,0.2-1.6,0.6-2.2C974.9,59.8,975.6,59.3,976.4,58.9z M976.8,62.4c0,0.8,0.2,1.4,0.6,1.9
					c0.4,0.4,0.9,0.7,1.5,0.7c0.6,0,1.1-0.2,1.5-0.6c0.4-0.4,0.6-1,0.6-1.9c0-0.7-0.2-1.3-0.6-1.7c-0.4-0.4-0.9-0.6-1.5-0.6
					c-0.7,0-1.2,0.2-1.6,0.7C976.9,61.3,976.8,61.9,976.8,62.4z M977,56c0,0.6,0.2,1,0.5,1.3c0.3,0.3,0.8,0.5,1.3,0.5
					c0.5,0,1-0.2,1.3-0.5c0.3-0.3,0.5-0.8,0.5-1.3c0-0.5-0.2-1-0.5-1.3c-0.3-0.3-0.8-0.5-1.3-0.5c-0.6,0-1,0.2-1.3,0.5
					S977,55.4,977,56z"/>
				<path class="st2" d="M985.7,63.5l2.8-0.3c0.1,0.6,0.2,1,0.5,1.3s0.7,0.4,1.1,0.4c0.6,0,1.1-0.3,1.5-0.8s0.7-1.7,0.8-3.4
					c-0.7,0.8-1.6,1.3-2.7,1.3c-1.2,0-2.2-0.5-3.1-1.4c-0.9-0.9-1.3-2.1-1.3-3.6c0-1.5,0.5-2.8,1.4-3.7c0.9-0.9,2.1-1.4,3.5-1.4
					c1.5,0,2.8,0.6,3.8,1.8c1,1.2,1.5,3.1,1.5,5.8c0,2.7-0.5,4.7-1.5,5.9s-2.3,1.8-4,1.8c-1.2,0-2.1-0.3-2.9-0.9
					C986.4,65.7,985.9,64.8,985.7,63.5z M992.2,57.2c0-0.9-0.2-1.7-0.6-2.2c-0.4-0.5-0.9-0.8-1.5-0.8c-0.5,0-1,0.2-1.3,0.6
					c-0.4,0.4-0.5,1.1-0.5,2.1c0,1,0.2,1.7,0.6,2.1c0.4,0.5,0.9,0.7,1.4,0.7c0.6,0,1-0.2,1.4-0.7C992,58.7,992.2,58.1,992.2,57.2z"
					/>
				<path class="st2" d="M999.8,58.9c-0.7-0.3-1.3-0.7-1.6-1.3c-0.3-0.5-0.5-1.2-0.5-1.8c0-1.1,0.4-2,1.2-2.8
					c0.8-0.7,1.9-1.1,3.3-1.1c1.4,0,2.5,0.4,3.3,1.1c0.8,0.7,1.2,1.7,1.2,2.8c0,0.7-0.2,1.3-0.5,1.9c-0.4,0.5-0.9,1-1.5,1.2
					c0.8,0.3,1.5,0.8,1.9,1.5c0.4,0.6,0.7,1.4,0.7,2.2c0,1.4-0.4,2.5-1.3,3.4c-0.9,0.9-2.1,1.3-3.5,1.3c-1.4,0-2.5-0.4-3.4-1.1
					c-1.1-0.8-1.6-2-1.6-3.5c0-0.8,0.2-1.6,0.6-2.2C998.3,59.8,998.9,59.3,999.8,58.9z M1000.1,62.4c0,0.8,0.2,1.4,0.6,1.9
					c0.4,0.4,0.9,0.7,1.5,0.7c0.6,0,1.1-0.2,1.5-0.6c0.4-0.4,0.6-1,0.6-1.9c0-0.7-0.2-1.3-0.6-1.7c-0.4-0.4-0.9-0.6-1.5-0.6
					c-0.7,0-1.2,0.2-1.6,0.7C1000.3,61.3,1000.1,61.9,1000.1,62.4z M1000.4,56c0,0.6,0.2,1,0.5,1.3c0.3,0.3,0.8,0.5,1.3,0.5
					c0.5,0,1-0.2,1.3-0.5c0.3-0.3,0.5-0.8,0.5-1.3c0-0.5-0.2-1-0.5-1.3c-0.3-0.3-0.8-0.5-1.3-0.5c-0.6,0-1,0.2-1.3,0.5
					S1000.4,55.4,1000.4,56z"/>
				<path class="st2" d="M1016.4,67h-2.9V56.1c-1.1,1-2.3,1.7-3.7,2.2v-2.6c0.8-0.2,1.6-0.7,2.5-1.4c0.9-0.7,1.5-1.5,1.8-2.4h2.3V67
					z"/>
			</g>
			<g>
				<path class="st2" d="M873.1,62.2c3.3,6.2,6.9,6.9,8,6.3l0.3-0.1l-2.5-4.8l-0.3,0.1c-0.9,0.5-1.7-0.9-2.8-2.9s-1.7-3.5-0.8-4
					l0.3-0.1l-2.5-4.8l-0.3,0.1C871.3,52.6,869.8,55.9,873.1,62.2z M882.8,67.5c0.4-0.2,0.2-0.7,0-1.1l-1.7-3.2
					c-0.2-0.3-0.5-0.5-0.7-0.4c-0.2,0.1-0.5,0.2-1,0.5l2.5,4.8L882.8,67.5z M876.7,55.8c0.2-0.1,0.3-0.5,0.1-0.8
					c-0.2-0.3-1.7-3.2-1.7-3.2c-0.2-0.4-0.5-0.9-0.9-0.7l-0.9,0.5l2.5,4.8C876.2,56,876.6,55.8,876.7,55.8z"/>
			</g>
		</g>
	</g>
	<g>
		<path class="st3" d="M942.5,8h145c5.2,0,9.5,4.3,9.5,9.5l0,0c0,5.2-4.3,9.5-9.5,9.5h-145c-5.2,0-9.5-4.3-9.5-9.5l0,0
			C933,12.3,937.3,8,942.5,8z"/>
	</g>
	<g>
		<path class="st2" d="M942.5,9c-4.7,0-8.5,3.8-8.5,8.5s3.8,8.5,8.5,8.5h145c4.7,0,8.5-3.8,8.5-8.5s-3.8-8.5-8.5-8.5H942.5 M942.5,8
			h145c5.2,0,9.5,4.3,9.5,9.5s-4.3,9.5-9.5,9.5h-145c-5.2,0-9.5-4.3-9.5-9.5S937.3,8,942.5,8z"/>
	</g>
	<g class="st0">
		<path class="st2" d="M943.8,18.2c0.7-0.2,1.5-0.4,2.2-0.4c1.4,0,2.5,0.8,2.5,2c0,1.2-0.8,2-2.1,2.3c-0.4,0.1-0.9,0.1-1.2,0.1
			l-0.3-0.8c0.4,0,0.8,0,1.2-0.1c0.9-0.2,1.7-0.6,1.7-1.5c0-0.8-0.8-1.3-1.7-1.3c-0.7,0-1.4,0.1-2.1,0.4c0,0.8,0,1.7,0,2.1
			c0,0.9-0.4,1.2-0.9,1.2c-0.8,0-2.1-0.7-2.1-1.6c0-0.8,1-1.7,2.2-2.2v-0.6c0-0.4,0-0.9,0-1.3c-0.3,0-0.5,0-0.7,0
			c-0.4,0-0.9,0-1.3,0l0-0.8c0.5,0.1,0.9,0.1,1.3,0.1c0.2,0,0.5,0,0.8,0c0-0.5,0-0.9,0-1.1c0-0.2,0-0.5-0.1-0.7h0.9
			c0,0.2,0,0.5,0,0.7c0,0.2,0,0.6,0,1.1c0.7-0.1,1.5-0.2,2-0.4l0,0.8c-0.6,0.1-1.3,0.3-2.1,0.3c0,0.5,0,0.9,0,1.3V18.2z M943.1,21
			c0-0.4,0-1,0-1.7c-0.8,0.4-1.4,0.9-1.4,1.4s0.7,0.8,1.1,0.8C943,21.4,943.1,21.3,943.1,21z M947,15.1c0.7,0.4,1.8,1,2.3,1.4
			l-0.4,0.6c-0.5-0.5-1.6-1.1-2.2-1.5L947,15.1z"/>
		<path class="st2" d="M954.2,15.8h-3.1v1.4h-0.7v-1.9h3.8v-0.6H951v-0.6h7.3v0.6h-3.3v0.6h3.9v1.9h-0.7v-1.4h-3.2v2.3h-0.7V15.8z
			 M957.8,22.1c0.5,0,0.6-0.2,0.7-1.2c0.2,0.1,0.4,0.2,0.6,0.2c-0.1,1.2-0.3,1.5-1.3,1.5h-2.3c-1.1,0-1.4-0.2-1.4-1v-0.3h-2.2v0.5
			h-0.7v-3.5h6.7v2.9h-3.1v0.3c0,0.3,0.1,0.4,0.7,0.4H957.8z M951.4,17.3h2.3v0.5h-2.3V17.3z M953.7,16.8h-2.1v-0.5h2.1V16.8z
			 M951.9,19v0.7h2.2V19H951.9z M954.2,20.8v-0.7h-2.2v0.7H954.2z M957.3,19h-2.4v0.7h2.4V19z M957.3,20.8v-0.7h-2.4v0.7H957.3z
			 M957.6,16.3v0.5h-2.1v-0.5H957.6z M955.4,17.3h2.4v0.5h-2.4V17.3z"/>
		<path class="st2" d="M960,15.3h3.7v0.6H960V15.3z M963.4,22.3h-2.3v0.5h-0.6v-3.3h2.9V22.3z M963.4,17.3h-2.9v-0.6h2.9V17.3z
			 M960.5,18.1h2.9v0.6h-2.9V18.1z M963.4,14.6h-2.8V14h2.8V14.6z M961.1,20v1.7h1.6V20H961.1z M966.9,17.2v1.7h1.9v3.8H968v-0.4
			h-2.9v0.5h-0.7v-3.8h1.7v-1.7h-2.3v-0.7h2.3v-1.6c-0.6,0.1-1.3,0.1-1.9,0.2c0-0.2-0.1-0.5-0.2-0.6c1.5-0.1,3.3-0.4,4.3-0.7
			l0.5,0.6c-0.6,0.2-1.2,0.3-2,0.4v1.7h2.3v0.7H966.9z M968,19.6h-2.9v2h2.9V19.6z"/>
		<path class="st2" d="M970.9,15.4c0.6-0.1,2.5-0.2,4.3-0.4c1.1-0.1,2-0.1,2.7-0.2v0.8c-0.6,0-1.4,0-1.9,0.2c-1.4,0.4-2.3,2-2.3,3.1
			c0,1.9,1.8,2.5,3.4,2.6l-0.3,0.8c-1.8-0.1-3.9-1.1-3.9-3.3c0-1.5,0.9-2.8,1.8-3.3c-0.9,0.1-3.6,0.4-4.6,0.6l-0.1-0.9
			C970.4,15.4,970.8,15.4,970.9,15.4z M977.4,18.2l-0.5,0.2c-0.2-0.5-0.5-1-0.8-1.4l0.5-0.2C976.8,17.1,977.2,17.8,977.4,18.2z
			 M978.5,17.8L978,18c-0.2-0.5-0.5-1-0.8-1.4l0.5-0.2C977.9,16.7,978.3,17.3,978.5,17.8z"/>
		<path class="st2" d="M983.5,21.5c0.3,0,0.6-0.1,0.8-0.1c1.3-0.3,2.5-1.2,2.5-2.9c0-1.5-0.9-2.7-2.6-2.9c-0.1,0.9-0.3,1.9-0.6,2.8
			c-0.6,2-1.4,3.1-2.3,3.1c-0.9,0-1.8-1-1.8-2.6c0-2.1,1.9-4,4.3-4c2.3,0,3.8,1.6,3.8,3.6c0,2.1-1.4,3.5-3.7,3.8L983.5,21.5z
			 M982.9,18.3c0.2-0.8,0.4-1.8,0.5-2.7c-1.9,0.2-3.1,1.9-3.1,3.2c0,1.2,0.6,1.8,1,1.8C981.8,20.6,982.4,19.9,982.9,18.3z"/>
		<path class="st2" d="M992.2,18.2c0.7-0.2,1.5-0.4,2.2-0.4c1.4,0,2.5,0.8,2.5,2c0,1.2-0.8,2-2.1,2.3c-0.4,0.1-0.9,0.1-1.2,0.1
			l-0.3-0.8c0.4,0,0.8,0,1.2-0.1c0.9-0.2,1.7-0.6,1.7-1.5c0-0.8-0.8-1.3-1.7-1.3c-0.7,0-1.4,0.1-2.1,0.4c0,0.8,0,1.7,0,2.1
			c0,0.9-0.3,1.2-0.9,1.2c-0.8,0-2.1-0.7-2.1-1.6c0-0.8,1-1.7,2.2-2.2v-0.6c0-0.4,0-0.9,0-1.3c-0.3,0-0.5,0-0.7,0
			c-0.5,0-0.9,0-1.3,0l0-0.8c0.5,0.1,0.9,0.1,1.3,0.1c0.2,0,0.5,0,0.8,0c0-0.5,0-0.9,0-1.1c0-0.2,0-0.5-0.1-0.7h0.9
			c0,0.2,0,0.5,0,0.7c0,0.2,0,0.6,0,1.1c0.7-0.1,1.5-0.2,2-0.4l0,0.8c-0.6,0.1-1.3,0.3-2.1,0.3c0,0.5,0,0.9,0,1.3V18.2z M991.5,21
			c0-0.4,0-1,0-1.7c-0.8,0.4-1.4,0.9-1.4,1.4s0.7,0.8,1.1,0.8C991.4,21.4,991.5,21.3,991.5,21z M995.4,15.1c0.7,0.4,1.8,1,2.3,1.4
			l-0.4,0.6c-0.5-0.5-1.6-1.1-2.2-1.5L995.4,15.1z"/>
		<path class="st2" d="M999.7,17.6v5.2H999v-8.7h3.6v3.5H999.7z M999.7,14.7v0.8h2.1v-0.8H999.7z M1001.9,17v-0.9h-2.1V17H1001.9z
			 M1001.8,21.4V22h-0.7v-3.5h3.7v2.9H1001.8z M1001.8,19.1v1.6h2.3v-1.6H1001.8z M1007.2,21.8c0,0.5-0.1,0.7-0.4,0.9
			c-0.3,0.1-0.9,0.1-1.8,0.1c0-0.2-0.2-0.6-0.3-0.8c0.6,0,1.3,0,1.5,0c0.2,0,0.2-0.1,0.2-0.2v-4.2h-2.9v-3.5h3.7V21.8z M1004.2,14.7
			v0.8h2.2v-0.8H1004.2z M1006.4,17v-0.9h-2.2V17H1006.4z"/>
		<path class="st2" d="M1010.1,16c0,0.6,0,1.5,0.1,2.3c0.2,1.7,0.6,2.7,1.3,2.7c0.5,0,1-1,1.2-2l0.6,0.7c-0.6,1.7-1.2,2.2-1.9,2.2
			c-0.9,0-1.8-0.9-2.1-3.5c-0.1-0.9-0.1-2.1-0.1-2.6c0-0.2,0-0.6-0.1-0.9l1,0C1010.1,15.3,1010.1,15.7,1010.1,16z M1017,20.2
			l-0.8,0.3c-0.2-1.8-0.8-3.7-1.7-4.9l0.8-0.3C1016.2,16.5,1016.9,18.5,1017,20.2z"/>
		<path class="st2" d="M1022.8,13.7c1.1,1.5,2.8,2.9,4.4,3.6c-0.2,0.2-0.4,0.4-0.5,0.6c-1.5-0.8-3.3-2.2-4.2-3.5
			c-0.8,1.2-2.4,2.6-4.1,3.5c-0.1-0.2-0.3-0.4-0.5-0.6c1.7-0.9,3.4-2.4,4.2-3.7H1022.8z M1019.5,18.8h6.1v4h-0.8v-0.4h-4.6v0.4h-0.7
			V18.8z M1025,16.9v0.7h-5v-0.7H1025z M1020.2,19.5v2.2h4.6v-2.2H1020.2z"/>
		<path class="st2" d="M1031.6,15.9c-0.1,0.2-0.3,0.5-0.4,0.7c0,0.2,0,0.4,0,0.6c1.1-0.9,2.2-1.2,3.1-1.2c1.4,0,2.6,1,2.6,2.5
			c0,2-1.4,3-3.6,3.5l-0.4-0.8c1.7-0.2,3.2-1,3.2-2.7c0-0.8-0.6-1.7-1.9-1.7c-1.1,0-2.2,0.6-3.1,1.4c0,0.4,0,0.8,0,1.2
			c0,0.9,0,1.5,0,2.4c0,0.2,0,0.4,0,0.6h-0.9c0-0.1,0-0.4,0-0.6c0-0.9,0-1.4,0-2.5c0-0.1,0-0.2,0-0.4c-0.5,0.7-1.1,1.7-1.6,2.3
			l-0.5-0.7c0.5-0.7,1.7-2.2,2.2-3c0-0.3,0-0.6,0.1-1c-0.5,0-1.3,0.2-1.9,0.2l-0.1-0.8c0.2,0,0.4,0,0.7,0c0.3,0,0.9-0.1,1.4-0.2
			c0-0.5,0.1-0.8,0.1-0.9c0-0.2,0-0.5,0-0.7l0.9,0c0,0.2-0.1,0.8-0.2,1.5l0.1,0L1031.6,15.9z"/>
		<path class="st2" d="M1044.9,14.3c0,0.2,0,0.5,0,0.7c0,0.4,0,0.9,0,1.4c0.4,0,0.8-0.1,1.1-0.1c0.3,0,0.5,0,0.8,0v0.8
			c-0.2,0-0.5,0-0.8,0c-0.3,0-0.7,0-1.1,0c0,0.7-0.1,1.6-0.1,2.1c-0.1,0.4-0.3,0.6-0.8,0.6c-0.4,0-1-0.1-1.3-0.1l0-0.7
			c0.3,0.1,0.8,0.1,1,0.1c0.2,0,0.3,0,0.4-0.3c0-0.3,0.1-1,0.1-1.6c-1,0.1-2.2,0.2-3.2,0.3c0,1,0,2,0,2.4c0,1.1,0,1.4,1.8,1.4
			c1.1,0,2.3-0.1,2.9-0.2l0,0.8c-0.7,0.1-1.9,0.2-2.9,0.2c-2.3,0-2.5-0.5-2.6-2.1c0-0.4,0-1.5,0-2.5l-1,0.1c-0.3,0-0.7,0.1-1,0.1
			L1038,17c0.3,0,0.7,0,1-0.1c0.2,0,0.6-0.1,1.1-0.1l0-1.4c0-0.3,0-0.5-0.1-0.8h0.9c0,0.2,0,0.5,0,0.8l0,1.3c1-0.1,2.1-0.2,3.2-0.3
			v-1.4c0-0.2,0-0.6-0.1-0.7H1044.9z"/>
		<path class="st2" d="M1049.7,17.1c0.6,0,1.1,0.5,1.1,1.1s-0.5,1.1-1.1,1.1c-0.6,0-1.1-0.5-1.1-1.1S1049.1,17.1,1049.7,17.1z"/>
		<path class="st2" d="M1054.3,19.1c-0.1,0.4-0.2,0.8-0.2,1.1c0,0.8,0.8,1.3,2.3,1.3c1.4,0,2.6-0.1,3.4-0.4l0,0.8
			c-0.7,0.2-2,0.3-3.4,0.3c-2,0-3.2-0.7-3.2-1.9c0-0.5,0.1-1,0.2-1.4L1054.3,19.1z M1053.9,15.1c0.7,0.1,1.6,0.1,2.6,0.1
			c0.9,0,2-0.1,2.7-0.1v0.8c-0.7,0-1.7,0.1-2.7,0.1c-1,0-1.8,0-2.6-0.1V15.1z M1060.3,15.4l-0.5,0.2c-0.2-0.4-0.5-1-0.8-1.4l0.5-0.2
			C1059.7,14.3,1060.1,15,1060.3,15.4z M1061.4,14.9l-0.6,0.2c-0.2-0.4-0.5-1-0.8-1.4l0.5-0.2C1060.8,13.9,1061.2,14.6,1061.4,14.9z
			"/>
		<path class="st2" d="M1063.9,17.4c0.4,0.4,1.3,1.4,1.5,1.7l-0.5,0.6c-0.2-0.3-0.6-0.9-1-1.4v4.5h-0.7V18c-0.4,1.1-0.9,2.3-1.4,2.9
			c-0.1-0.2-0.3-0.5-0.4-0.7c0.7-0.8,1.4-2.4,1.8-3.8h-1.5v-0.7h1.6v-2.1h0.7v2.1h1.4v0.7h-1.4V17.4z M1070.2,14.2v8.4h-0.7v-0.6h-3
			v0.6h-0.7v-8.5H1070.2z M1066.5,14.9v1.7h3v-1.7H1066.5z M1066.5,19h3v-1.7h-3V19z M1069.5,21.4v-1.7h-3v1.7H1069.5z"/>
		<path class="st2" d="M1075.1,15.9h-3.7v-0.6h3.7V15.9z M1074.8,22.2h-2.3v0.5h-0.6v-3.3h2.9V22.2z M1074.8,17.2h-2.9v-0.6h2.9
			V17.2z M1071.9,18h2.9v0.6h-2.9V18z M1074.8,14.6h-2.8V14h2.8V14.6z M1072.5,19.9v1.7h1.6v-1.7H1072.5z M1078.2,19.2
			c0,0.5,0.3,2.2,2.4,2.9c-0.1,0.2-0.3,0.5-0.5,0.6c-1.5-0.6-2.2-1.9-2.3-2.5c-0.2,0.6-0.8,1.9-2.6,2.5c-0.1-0.2-0.3-0.4-0.4-0.6
			c2.3-0.8,2.7-2.4,2.7-3v-1.4h0.7V19.2z M1075.1,20.3c0.5-0.3,0.8-1,0.9-1.7l0.7,0.1c-0.1,0.7-0.5,1.5-1,1.9L1075.1,20.3z
			 M1080.1,18.1c-0.5-0.5-1.4-1.1-2.3-1.6c-0.4,0.8-1,1.3-2.2,1.7c-0.1-0.2-0.3-0.4-0.4-0.6c2-0.6,2.3-1.8,2.4-3.9h0.7
			c0,0.8-0.1,1.5-0.3,2.1c0.9,0.5,2,1.2,2.5,1.7L1080.1,18.1z M1076.7,14.4c-0.1,0.7-0.4,1.4-0.8,1.8l-0.6-0.3
			c0.4-0.3,0.7-1,0.8-1.6L1076.7,14.4z M1080.3,14.5c-0.3,0.6-0.7,1.2-1,1.6l-0.5-0.2c0.3-0.4,0.7-1.1,0.8-1.6L1080.3,14.5z
			 M1078.8,20.2c0.3-0.5,0.7-1.2,0.9-1.7l0.7,0.2c-0.3,0.6-0.7,1.3-1.1,1.7L1078.8,20.2z"/>
	</g>
</g>
</svg>
