<?xml version="1.0" encoding="UTF-8"?><svg id="_レイヤー_2" xmlns="http://www.w3.org/2000/svg" viewBox="0 0 781.58 118.28"><defs><style>.cls-1{fill:#fff;}.cls-2{fill:#adcc08;}.cls-3{fill:none;}</style></defs><g id="logoのコピー"><circle class="cls-1" cx="59.14" cy="59.14" r="58.71"/><path class="cls-2" d="m110.87,46.75c-15.51,2.66-34.13,10.79-34.13,10.79-20.68,7.24-6.21-9.31-6.21-9.31,4.14-4.14,19.99-10.72,19.99-10.72-25.52.65-39.47,12.82-39.47,12.82-9.14,7.27-6.37-3.13-6.37-3.13l-3.1,2.07c-10.34,4.14-6.21-5.17-6.21-5.17,16.17-25.6,43.3-30.57,60.25-30.93C85.61,5.2,72.93.43,59.14.43,26.72.43.43,26.72.43,59.14c0,3.47.32,6.87.9,10.18,4.48-.97,9.5-.88,9.5-.88,15.74-.15,35.41-5.2,35.41-5.2,21.57-3.85,4.64,10.18,4.64,10.18-4.74,3.42-21.44,7.4-21.44,7.4,25.3,3.43,41.01-6.36,41.01-6.36,10.18-5.71,5.79,4.11,5.79,4.11l3.39-1.55c10.87-2.43,5.3,6.09,5.3,6.09-19.67,22.27-46.61,23.24-63.48,21.05,10.2,8.54,23.33,13.7,37.68,13.7,32.42,0,58.71-26.28,58.71-58.71,0-4.66-.56-9.18-1.58-13.53-2.94.79-5.39,1.14-5.39,1.14Z"/><circle class="cls-3" cx="59.14" cy="59.14" r="59.14"/><path class="cls-2" d="m590.4,55.43c-1.58,1.03-3.25,1.43-5,1.19-1.75-.24-3.11-1.12-4.07-2.63-.76-1.24-.98-2.59-.67-4.07.31-1.48,1.29-2.73,2.94-3.76,3.85-2.41,7.75-5.03,11.7-7.89,3.95-2.85,7.8-5.83,11.55-8.92,3.75-3.09,7.13-6.12,10.16-9.07,2.95-2.89,5.67-4.83,8.14-5.83,2.47-1,5.03-1.05,7.68-.15,2.64.89,5.58,2.75,8.81,5.57,1.99,1.72,4.33,3.66,7.01,5.82,2.68,2.17,5.53,4.42,8.56,6.75,3.02,2.34,6.1,4.61,9.23,6.8,3.13,2.2,6.1,4.16,8.92,5.88,1.72,1.1,2.8,2.47,3.25,4.12.45,1.65.16,3.23-.88,4.74-1.03,1.44-2.47,2.27-4.33,2.47-1.86.21-3.68-.27-5.46-1.44-2.61-1.79-5.46-3.83-8.56-6.13s-6.22-4.73-9.38-7.27c-3.16-2.54-6.13-5.02-8.92-7.42-2.78-2.41-5.21-4.57-7.27-6.5-1.65-1.58-3.09-2.39-4.33-2.42-1.24-.03-2.68.74-4.33,2.32-2.2,2.06-4.73,4.35-7.58,6.86-2.85,2.51-5.84,5.03-8.97,7.58-3.13,2.54-6.25,4.98-9.38,7.32-3.13,2.34-6.07,4.37-8.81,6.08Zm8.35,47.84c-2.13,1.03-4.04,1.32-5.72.88-1.68-.45-2.97-1.46-3.87-3.04-.89-1.72-.91-3.37-.05-4.95.86-1.58,2.11-2.72,3.76-3.4,4.95-2.27,8.73-5,11.34-8.19,2.61-3.2,4.38-7.23,5.31-12.11.93-4.88,1.32-10.96,1.19-18.25-.07-1.51.45-2.85,1.55-4.02,1.1-1.17,2.51-1.75,4.23-1.75s3.26.6,4.43,1.8c1.17,1.2,1.75,2.53,1.75,3.97.14,8.94-.57,16.53-2.11,22.78-1.55,6.26-4.09,11.48-7.63,15.67-3.54,4.19-8.27,7.73-14.17,10.62Zm45.88,1.44c-1.93,0-3.42-.52-4.48-1.55-1.07-1.03-1.6-2.44-1.6-4.23v-44.74c0-1.65.6-3.02,1.8-4.12,1.2-1.1,2.63-1.65,4.28-1.65s2.99.55,4.23,1.65c1.24,1.1,1.86,2.47,1.86,4.12v44.74c0,1.79-.52,3.2-1.55,4.23-1.03,1.03-2.54,1.55-4.54,1.55Z"/><path class="cls-2" d="m687.92,40.38c-1.31,0-2.41-.46-3.3-1.39-.89-.93-1.34-2.04-1.34-3.35,0-1.24.45-2.32,1.34-3.25.89-.93,1.99-1.39,3.3-1.39h29.07c1.24,0,2.3.46,3.2,1.39s1.34,2.01,1.34,3.25c0,1.31-.45,2.42-1.34,3.35-.89.93-1.96,1.39-3.2,1.39h-29.07Zm54.43,29.79c-4.47,0-7.87-.38-10.21-1.13-2.34-.76-3.92-1.99-4.74-3.71-.82-1.72-1.24-3.99-1.24-6.8v-5.98c-.28.35-.53.65-.77.93-.24.28-.5.58-.77.93-.96,1.1-2.17,1.7-3.61,1.8s-2.75-.29-3.92-1.19c-.48-.41-.82-.82-1.03-1.24-.89.55-1.82.82-2.78.82h-21.14c-1.31,0-2.41-.46-3.3-1.39-.89-.93-1.34-2.01-1.34-3.25,0-1.31.45-2.42,1.34-3.35.89-.93,1.99-1.39,3.3-1.39h21.14c1.72,0,3.06.76,4.02,2.27,1.51-1.72,3.07-3.68,4.69-5.88,1.61-2.2,3.13-4.43,4.54-6.7,1.41-2.27,2.56-4.33,3.45-6.19.82-1.72,2.2-2.65,4.12-2.78v-.31h-10.21c-1.1,0-2.06-.41-2.89-1.24s-1.24-1.79-1.24-2.89c0-1.17.41-2.15,1.24-2.94s1.79-1.19,2.89-1.19h10.21v-1.65c0-1.58.51-2.85,1.55-3.81,1.03-.96,2.27-1.44,3.71-1.44s2.68.48,3.71,1.44c1.03.96,1.55,2.23,1.55,3.81v1.65h10.52v-1.65c0-1.58.52-2.85,1.55-3.81,1.03-.96,2.27-1.44,3.71-1.44s2.66.48,3.66,1.44c1,.96,1.49,2.23,1.49,3.81v1.65h10.31c1.17,0,2.15.4,2.94,1.19.79.79,1.19,1.77,1.19,2.94,0,1.1-.4,2.06-1.19,2.89-.79.82-1.77,1.24-2.94,1.24h-10.31v1.34c0,1.58-.5,2.85-1.49,3.81-1,.96-2.22,1.44-3.66,1.44h-.31c0,.07-.07.24-.21.52-.07.28-.21.58-.41.93-.21.35-.41.72-.62,1.14h16.29c.96,0,1.75.31,2.37.93s.93,1.41.93,2.37-.31,1.77-.93,2.42-1.41.98-2.37.98h-16.19v3.2h13.61c.82,0,1.53.29,2.11.88.58.58.88,1.32.88,2.22,0,.82-.29,1.53-.88,2.11-.59.59-1.29.88-2.11.88h-13.61v3.09h13.61c.82,0,1.53.29,2.11.88.58.58.88,1.29.88,2.11,0,.89-.29,1.63-.88,2.21-.59.58-1.29.88-2.11.88h-13.61v3.51h17.11c.96,0,1.77.31,2.42.93.65.62.98,1.41.98,2.37,0,.89-.33,1.68-.98,2.37-.65.69-1.46,1.03-2.42,1.03h-33.71Zm-50-44.02c-1.31,0-2.44-.48-3.4-1.44-.96-.96-1.44-2.09-1.44-3.4s.48-2.44,1.44-3.4,2.1-1.44,3.4-1.44h20.82c1.37,0,2.51.48,3.4,1.44.89.96,1.34,2.1,1.34,3.4s-.45,2.44-1.34,3.4c-.89.96-2.03,1.44-3.4,1.44h-20.82Zm-.21,42.79c-1.31,0-2.41-.46-3.3-1.39-.89-.93-1.34-2.04-1.34-3.35s.45-2.42,1.34-3.35c.89-.93,1.99-1.39,3.3-1.39h21.14c1.3,0,2.41.46,3.3,1.39.89.93,1.34,2.05,1.34,3.35s-.45,2.42-1.34,3.35c-.89.93-1.99,1.39-3.3,1.39h-21.14Zm10.72,35.98c-4.06,0-7.2-.5-9.43-1.49-2.23-1-3.76-2.63-4.59-4.9s-1.24-5.29-1.24-9.07.41-6.91,1.24-9.18,2.35-3.9,4.59-4.9c2.23-1,5.38-1.5,9.43-1.5s7.28.5,9.48,1.5c2.2,1,3.71,2.63,4.54,4.9s1.24,5.33,1.24,9.18-.41,6.8-1.24,9.07-2.34,3.9-4.54,4.9c-2.2,1-5.36,1.49-9.48,1.49Zm0-9.38c2.06,0,3.42-.41,4.07-1.24.65-.82.98-2.44.98-4.84s-.33-4.04-.98-4.9c-.65-.86-2.01-1.29-4.07-1.29s-3.32.43-3.97,1.29c-.65.86-.98,2.49-.98,4.9s.33,4.02.98,4.84c.65.82,1.97,1.24,3.97,1.24Zm24.33,11.85c-1.72.27-3.18.14-4.38-.41-1.2-.55-2.05-1.58-2.53-3.09-.41-1.58-.19-2.96.67-4.12.86-1.17,2.11-1.89,3.76-2.16,3.23-.48,6.36-1.13,9.38-1.96,3.02-.82,5.88-1.79,8.56-2.89-3.64-3.23-6.84-7.01-9.59-11.34h-7.01c-1.1,0-2.05-.41-2.84-1.24s-1.19-1.79-1.19-2.89c0-1.17.4-2.15,1.19-2.94.79-.79,1.74-1.19,2.84-1.19h34.33c3.44,0,6.1.79,7.99,2.37,1.89,1.58,2.84,3.54,2.84,5.88s-1.17,4.61-3.51,6.8c-.89.89-1.84,1.77-2.84,2.63-1,.86-2.05,1.67-3.14,2.42,2.2.89,4.57,1.7,7.11,2.42,2.54.72,5.22,1.29,8.04,1.7,1.65.28,2.9.96,3.76,2.06.86,1.1,1.12,2.44.77,4.02-.76,3.09-3.16,4.33-7.22,3.71-8.04-1.24-15.46-3.85-22.27-7.83-3.51,1.79-7.3,3.37-11.39,4.74-4.09,1.37-8.54,2.47-13.35,3.3Zm9.59-62.68h11.44v-3.2h-11.44v3.2Zm0,9.17h11.44v-3.09h-11.44v3.09Zm5.57,9.59h5.88v-3.51h-11.34c.14,1.31.6,2.22,1.39,2.73.79.52,2.15.77,4.07.77Zm-4.02-28.66h9.48l2.37-5.67c.41-1.03,1.08-1.8,2.01-2.32.93-.52,1.91-.77,2.94-.77v-.41h-10.52v1.34c0,1.51-.5,2.75-1.49,3.71-1,.96-2.18,1.48-3.56,1.55-.14.41-.28.76-.41,1.03-.07.27-.19.53-.36.77-.17.24-.33.5-.46.77Zm13.82,53.2c.89-.55,1.75-1.1,2.58-1.65s1.58-1.07,2.27-1.55c1.17-.89,1.65-1.68,1.44-2.37-.21-.69-1.1-1.03-2.68-1.03h-11.24c1.17,1.17,2.39,2.32,3.66,3.45,1.27,1.14,2.59,2.18,3.97,3.14Z"/><path class="cls-2" d="m135.91,102.43c-4.44,0-6.6-1.96-6.6-6v-1.56c0-3.09.94-5.98,2.8-8.61l39.29-55.15h-34.05c-2.11,0-3.76-.5-4.9-1.5-1.14-.99-1.69-2.42-1.69-4.37,0-4.03,2.16-5.99,6.6-5.99h43.18c4.44,0,6.6,1.96,6.6,5.99v1.56c0,3.16-.94,6.01-2.79,8.48l-39.3,55.29h36.57c4.44,0,6.6,1.92,6.6,5.87s-2.16,6-6.6,6h-45.71Z"/><path class="cls-2" d="m208.68,102.43c-4.44,0-6.6-2.16-6.6-6.6V25.83c0-4.44,2.16-6.6,6.6-6.6h42.1c4.44,0,6.6,1.96,6.6,5.99s-2.16,5.87-6.6,5.87h-35.86v22.89h32.13c4.44,0,6.6,1.96,6.6,6s-2.16,6-6.6,6h-32.13v24.57h37.18c4.44,0,6.6,1.92,6.6,5.87s-2.16,6-6.6,6h-43.42Z"/><path class="cls-2" d="m331.84,102.43c-3.54,0-6.2-1.46-8.12-4.46l-38.33-58.17v56.03c0,4.44-2.12,6.6-6.48,6.6s-6.36-2.16-6.36-6.6V25.83c0-4.44,2.08-6.6,6.36-6.6h1.56c3.46,0,6.12,1.46,8.12,4.47l37.48,56.47V25.83c0-2.17.58-3.83,1.71-4.93,1.14-1.1,2.78-1.66,4.88-1.66,4.36,0,6.48,2.16,6.48,6.6v70c0,4.44-2,6.6-6.12,6.6h-1.2Z"/><path class="cls-2" d="m409.06,103.03c-2.3,0-4.17-.44-5.57-1.31-1.42-.88-2.69-2.07-3.77-3.54l-29.77-39.82v37.47c0,4.44-2.12,6.6-6.48,6.6s-6.36-2.16-6.36-6.6V25.83c0-4.44,2.08-6.6,6.36-6.6s6.48,2.16,6.48,6.6v30.81l27.94-32.16c1.72-2.11,3.28-3.52,4.66-4.21,1.37-.68,3.15-1.03,5.31-1.03,1.86,0,3.23.44,4.1,1.3.87.87,1.27,1.89,1.24,3.12-.04,1.25-.51,2.44-1.39,3.55l-27.2,30.72,28.88,36.77c.89,1.19,1.38,2.47,1.46,3.81.07,1.3-.33,2.36-1.23,3.22-.9.87-2.47,1.3-4.65,1.3Z"/><path class="cls-2" d="m434.68,102.43c-4.44,0-6.6-2.16-6.6-6.6V25.83c0-4.44,2.16-6.6,6.6-6.6h42.1c4.44,0,6.6,1.96,6.6,5.99s-2.16,5.87-6.6,5.87h-35.86v22.89h32.13c4.44,0,6.6,1.96,6.6,6s-2.16,6-6.6,6h-32.13v24.57h37.18c4.44,0,6.6,1.92,6.6,5.87s-2.16,6-6.6,6h-43.42Z"/><path class="cls-2" d="m557.84,102.43c-3.54,0-6.2-1.46-8.12-4.46l-38.33-58.17v56.03c0,4.44-2.12,6.6-6.48,6.6s-6.36-2.16-6.36-6.6V25.83c0-4.44,2.08-6.6,6.36-6.6h1.57c3.46,0,6.12,1.46,8.12,4.47l37.48,56.47V25.83c0-2.18.58-3.83,1.71-4.93,1.14-1.1,2.78-1.66,4.88-1.66,4.36,0,6.48,2.16,6.48,6.6v70c0,4.44-2,6.6-6.12,6.6h-1.2Z"/></g></svg>